<svg viewBox="0 0 44 44" fill="none" xmlns="http://www.w3.org/2000/svg">
<path d="M41.25 41.25H5.5C4.77065 41.25 4.07118 40.9603 3.55546 40.4445C3.03973 39.9288 2.75 39.2293 2.75 38.5V2.75H5.5V38.5H41.25V41.25Z" fill="white"/>
<path d="M13.75 22C14.2939 22 14.8256 22.1613 15.2778 22.4635C15.7301 22.7656 16.0825 23.1951 16.2907 23.6976C16.4988 24.2001 16.5533 24.753 16.4472 25.2865C16.3411 25.8199 16.0791 26.3099 15.6945 26.6945C15.31 27.0791 14.8199 27.3411 14.2865 27.4472C13.7531 27.5533 13.2001 27.4988 12.6976 27.2907C12.1951 27.0825 11.7656 26.7301 11.4635 26.2778C11.1613 25.8256 11 25.2939 11 24.75C11 24.0207 11.2897 23.3212 11.8055 22.8055C12.3212 22.2897 13.0207 22 13.75 22ZM13.75 19.25C12.6622 19.25 11.5988 19.5726 10.6944 20.1769C9.7899 20.7813 9.08495 21.6402 8.66867 22.6452C8.25238 23.6502 8.14346 24.7561 8.35568 25.823C8.5679 26.8899 9.09173 27.8699 9.86091 28.6391C10.6301 29.4083 11.6101 29.9321 12.677 30.1443C13.7439 30.3565 14.8498 30.2476 15.8548 29.8313C16.8598 29.4151 17.7187 28.7101 18.3231 27.8056C18.9274 26.9012 19.25 25.8378 19.25 24.75C19.25 23.2913 18.6705 21.8924 17.6391 20.8609C16.6076 19.8295 15.2087 19.25 13.75 19.25ZM28.875 8.25C29.9628 8.25 31.0262 8.57257 31.9306 9.17692C32.8351 9.78126 33.5401 10.6402 33.9563 11.6452C34.3726 12.6502 34.4815 13.7561 34.2693 14.823C34.0571 15.8899 33.5333 16.8699 32.7641 17.6391C31.9949 18.4083 31.0149 18.9321 29.948 19.1443C28.8811 19.3565 27.7752 19.2476 26.7702 18.8313C25.7653 18.4151 24.9063 17.7101 24.3019 16.8056C23.6976 15.9012 23.375 14.8378 23.375 13.75C23.375 12.2913 23.9545 10.8924 24.9859 9.86091C26.0174 8.82946 27.4163 8.25 28.875 8.25ZM28.875 5.5C27.2433 5.5 25.6483 5.98385 24.2915 6.89038C22.9348 7.7969 21.8774 9.08537 21.253 10.5929C20.6286 12.1004 20.4652 13.7592 20.7835 15.3595C21.1019 16.9598 21.8876 18.4298 23.0414 19.5836C24.1952 20.7374 25.6652 21.5231 27.2655 21.8415C28.8659 22.1598 30.5247 21.9964 32.0321 21.372C33.5396 20.7476 34.8281 19.6902 35.7346 18.3335C36.6411 16.9767 37.125 15.3817 37.125 13.75C37.125 11.562 36.2558 9.46354 34.7086 7.91637C33.1615 6.36919 31.063 5.5 28.875 5.5ZM33.6875 28.875C34.0954 28.875 34.4942 28.996 34.8334 29.2226C35.1725 29.4492 35.4369 29.7713 35.593 30.1482C35.7491 30.5251 35.79 30.9398 35.7104 31.3399C35.6308 31.74 35.4344 32.1075 35.1459 32.3959C34.8575 32.6844 34.49 32.8808 34.0899 32.9604C33.6898 33.04 33.2751 32.9991 32.8982 32.843C32.5213 32.6869 32.1992 32.4225 31.9726 32.0834C31.746 31.7442 31.625 31.3454 31.625 30.9375C31.625 30.3905 31.8423 29.8659 32.2291 29.4791C32.6159 29.0923 33.1405 28.875 33.6875 28.875ZM33.6875 26.125C32.7357 26.125 31.8052 26.4072 31.0138 26.9361C30.2224 27.4649 29.6056 28.2165 29.2413 29.0958C28.8771 29.9752 28.7818 30.9428 28.9675 31.8764C29.1532 32.8099 29.6115 33.6674 30.2845 34.3405C30.9576 35.0135 31.8151 35.4718 32.7486 35.6575C33.6822 35.8432 34.6498 35.7479 35.5292 35.3837C36.4085 35.0194 37.1601 34.4026 37.6889 33.6112C38.2178 32.8198 38.5 31.8893 38.5 30.9375C38.5 29.6611 37.993 28.4371 37.0905 27.5345C36.1879 26.632 34.9639 26.125 33.6875 26.125Z" fill="white"/>
</svg>
