<svg viewBox="0 0 36 36"  xmlns="http://www.w3.org/2000/svg">
<path d="M27.0001 18C26.9928 17.2108 26.6748 16.4563 26.1151 15.9L19.6801 9.45C19.3991 9.17062 19.0189 9.01381 18.6226 9.01381C18.2263 9.01381 17.8462 9.17062 17.5651 9.45C17.4245 9.58944 17.3129 9.75534 17.2368 9.93813C17.1606 10.1209 17.1214 10.317 17.1214 10.515C17.1214 10.713 17.1606 10.9091 17.2368 11.0919C17.3129 11.2746 17.4245 11.4406 17.5651 11.58L22.5001 16.5H7.50011C7.10228 16.5 6.72075 16.658 6.43945 16.9393C6.15814 17.2206 6.00011 17.6022 6.00011 18C6.00011 18.3978 6.15814 18.7793 6.43945 19.0606C6.72075 19.342 7.10228 19.5 7.50011 19.5H22.5001L17.5651 24.435C17.2827 24.7155 17.1232 25.0966 17.1218 25.4947C17.1204 25.8927 17.2771 26.275 17.5576 26.5575C17.8381 26.8399 18.2193 26.9994 18.6173 27.0008C19.0153 27.0022 19.3977 26.8454 19.6801 26.565L26.1151 20.115C26.6785 19.555 26.9968 18.7944 27.0001 18Z" />
</svg>
