<svg  viewBox="0 0 44 43" fill="inherit"   xmlns="http://www.w3.org/2000/svg">
<path fill="inherit"  d="M38.5 2.75C39.2293 2.75 39.9288 3.03973 40.4445 3.55546C40.9603 4.07118 41.25 4.77065 41.25 5.5V27.5C41.25 28.2293 40.9603 28.9288 40.4445 29.4445C39.9288 29.9603 39.2293 30.25 38.5 30.25H31.625C30.7712 30.25 29.929 30.4488 29.1653 30.8306C28.4016 31.2125 27.7373 31.7669 27.225 32.45L22 39.4157L16.775 32.45C16.2627 31.7669 15.5984 31.2125 14.8347 30.8306C14.071 30.4488 13.2288 30.25 12.375 30.25H5.5C4.77065 30.25 4.07118 29.9603 3.55546 29.4445C3.03973 28.9288 2.75 28.2293 2.75 27.5V5.5C2.75 4.77065 3.03973 4.07118 3.55546 3.55546C4.07118 3.03973 4.77065 2.75 5.5 2.75H38.5ZM5.5 0C4.04131 0 2.64236 0.579463 1.61091 1.61091C0.579463 2.64236 0 4.04131 0 5.5L0 27.5C0 28.9587 0.579463 30.3576 1.61091 31.3891C2.64236 32.4205 4.04131 33 5.5 33H12.375C12.8019 33 13.223 33.0994 13.6048 33.2903C13.9867 33.4812 14.3188 33.7585 14.575 34.1L19.8 41.0657C20.0562 41.4073 20.3883 41.6845 20.7702 41.8754C21.152 42.0663 21.5731 42.1657 22 42.1657C22.4269 42.1657 22.848 42.0663 23.2298 41.8754C23.6117 41.6845 23.9438 41.4073 24.2 41.0657L29.425 34.1C29.6812 33.7585 30.0133 33.4812 30.3952 33.2903C30.777 33.0994 31.1981 33 31.625 33H38.5C39.9587 33 41.3576 32.4205 42.3891 31.3891C43.4205 30.3576 44 28.9587 44 27.5V5.5C44 4.04131 43.4205 2.64236 42.3891 1.61091C41.3576 0.579463 39.9587 0 38.5 0L5.5 0Z" />
<path d="M19.4316 13.09C18.8959 12.2558 18.1039 11.618 17.1747 11.2724C16.2454 10.9269 15.2292 10.8923 14.2786 11.1738C13.328 11.4553 12.4944 12.0377 11.9032 12.8336C11.312 13.6294 10.9951 14.5956 11.0001 15.587C11.0006 16.408 11.2215 17.2138 11.6398 17.9202C12.0581 18.6266 12.6585 19.2076 13.3781 19.6027C14.0978 19.9978 14.9103 20.1924 15.7309 20.1662C16.5514 20.1399 17.3499 19.8938 18.0428 19.4535C17.6826 20.5233 17.0116 21.6645 15.9061 22.8085C15.6945 23.0273 15.5786 23.3212 15.5838 23.6255C15.5889 23.9297 15.7148 24.2195 15.9336 24.431C16.1524 24.6425 16.4462 24.7585 16.7505 24.7533C17.0548 24.7481 17.3445 24.6223 17.5561 24.4035C21.6426 20.1685 21.1118 15.565 19.4316 13.0955V13.09ZM30.4316 13.09C29.8959 12.2558 29.1039 11.618 28.1747 11.2724C27.2454 10.9269 26.2292 10.8923 25.2786 11.1738C24.328 11.4553 23.4944 12.0377 22.9032 12.8336C22.312 13.6294 21.9951 14.5956 22.0001 15.587C22.0005 16.408 22.2215 17.2138 22.6398 17.9202C23.0581 18.6266 23.6585 19.2076 24.3781 19.6027C25.0978 19.9978 25.9103 20.1924 26.7309 20.1662C27.5514 20.1399 28.3499 19.8938 29.0428 19.4535C28.6826 20.5233 28.0116 21.6645 26.9061 22.8085C26.6945 23.0273 26.5786 23.3212 26.5838 23.6255C26.5889 23.9297 26.7148 24.2195 26.9336 24.431C27.1524 24.6425 27.4462 24.7585 27.7505 24.7533C28.0548 24.7481 28.3445 24.6223 28.5561 24.4035C32.6426 20.1685 32.1118 15.565 30.4316 13.0955V13.09Z" fill="inherit" />
</svg>
