<svg viewBox="0 0 43 43"  fill="inherit" xmlns="http://www.w3.org/2000/svg">
<path d="M39.2733 11.8608C39.0915 11.423 38.7436 11.0751 38.3058 10.8933C38.0904 10.8015 37.8591 10.7528 37.625 10.75H28.6667C28.1915 10.75 27.7358 10.9388 27.3998 11.2748C27.0638 11.6108 26.875 12.0665 26.875 12.5417C26.875 13.0168 27.0638 13.4726 27.3998 13.8086C27.7358 14.1446 28.1915 14.3333 28.6667 14.3333H33.3071L23.2917 24.3487L17.3971 18.4362C17.2305 18.2683 17.0324 18.135 16.814 18.0441C16.5957 17.9531 16.3615 17.9063 16.125 17.9063C15.8885 17.9063 15.6543 17.9531 15.436 18.0441C15.2176 18.135 15.0195 18.2683 14.8529 18.4362L4.10291 29.1863C3.93498 29.3528 3.80169 29.551 3.71073 29.7693C3.61977 29.9876 3.57294 30.2218 3.57294 30.4583C3.57294 30.6949 3.61977 30.929 3.71073 31.1474C3.80169 31.3657 3.93498 31.5639 4.10291 31.7304C4.26947 31.8983 4.46763 32.0316 4.68596 32.1226C4.90429 32.2136 5.13847 32.2604 5.37499 32.2604C5.61151 32.2604 5.84569 32.2136 6.06403 32.1226C6.28236 32.0316 6.48052 31.8983 6.64708 31.7304L16.125 22.2346L22.0196 28.1471C22.1861 28.315 22.3843 28.4483 22.6026 28.5393C22.821 28.6302 23.0551 28.6771 23.2917 28.6771C23.5282 28.6771 23.7624 28.6302 23.9807 28.5393C24.199 28.4483 24.3972 28.315 24.5637 28.1471L35.8333 16.8596V21.5C35.8333 21.9752 36.0221 22.4309 36.3581 22.7669C36.6941 23.1029 37.1498 23.2917 37.625 23.2917C38.1002 23.2917 38.5559 23.1029 38.8919 22.7669C39.2279 22.4309 39.4167 21.9752 39.4167 21.5V12.5417C39.4138 12.3075 39.3651 12.0762 39.2733 11.8608Z" />
</svg>
