<svg viewBox="0 0 24 25" fill="none" xmlns="http://www.w3.org/2000/svg">
<path d="M20 20.3505L15.95 16.3716L20 20.3505ZM15.95 16.3716C16.6 15.7329 17.1157 14.9747 17.4675 14.1403C17.8193 13.3059 18.0003 12.4116 18.0003 11.5084C18.0003 10.6052 17.8193 9.7109 17.4675 8.87648C17.1157 8.04206 16.6 7.28388 15.95 6.64525C15.2999 6.00661 14.5282 5.50001 13.6789 5.15438C12.8296 4.80875 11.9193 4.63086 11 4.63086C10.0807 4.63086 9.17039 4.80875 8.32107 5.15438C7.47175 5.50001 6.70003 6.00661 6.04999 6.64525C4.73717 7.93504 3.99963 9.68437 3.99963 11.5084C3.99963 13.3324 4.73717 15.0818 6.04999 16.3716C7.36281 17.6614 9.14338 18.3859 11 18.3859C12.8566 18.3859 14.6372 17.6614 15.95 16.3716V16.3716Z" stroke-width="2" stroke-linecap="round" stroke-linejoin="round"/>
</svg>
