<svg viewBox="0 0 25 24" fill="none" xmlns="http://www.w3.org/2000/svg">
<g clip-path="url(#clip0_212_459)">
<path d="M22.4823 5.5H9.4823C8.3823 5.5 7.4823 6.4 7.4823 7.5V16.5C7.4823 17.0304 7.69301 17.5391 8.06809 17.9142C8.44316 18.2893 8.95187 18.5 9.4823 18.5H22.4823C23.5923 18.5 24.4823 17.61 24.4823 16.5V7.5C24.4823 6.96957 24.2716 6.46086 23.8965 6.08579C23.5214 5.71071 23.0127 5.5 22.4823 5.5ZM22.4823 16.5H9.4823V9.17L15.9823 12.5L22.4823 9.17V16.5ZM15.9823 10.81L9.4823 7.5H22.4823L15.9823 10.81ZM5.4823 16.5C5.4823 16.67 5.5123 16.83 5.5323 17H1.4823C0.9303 17 0.4823 16.55 0.4823 16C0.4823 15.45 0.9303 15 1.4823 15H5.4823V16.5ZM3.4823 7H5.5323C5.5123 7.17 5.4823 7.33 5.4823 7.5V9H3.4823C2.9323 9 2.4823 8.55 2.4823 8C2.4823 7.45 2.9323 7 3.4823 7ZM1.4823 12C1.4823 11.45 1.9323 11 2.4823 11H5.4823V13H2.4823C1.9323 13 1.4823 12.55 1.4823 12Z" fill="white"/>
</g>
<defs>
<clipPath id="clip0_212_459">
<rect width="24" height="24" fill="white" transform="translate(0.4823)"/>
</clipPath>
</defs>
</svg>
