<svg  viewBox="0 0 21 21" xmlns="http://www.w3.org/2000/svg">
<path d="M14.3104 9.87246C14.9994 9.15469 15.4219 8.18467 15.4219 7.11826V6.90908C15.4219 4.70244 13.6151 2.91211 11.388 2.91211H5.31973C5.01006 2.91211 4.75781 3.16436 4.75781 3.47402V17.4009C4.75781 17.7352 5.02852 18.0059 5.36279 18.0059H11.8986C14.298 18.0059 16.2422 16.074 16.2422 13.689V13.4634C16.2422 11.9663 15.4752 10.6477 14.3104 9.87246ZM6.72656 4.88086H11.3347C12.5057 4.88086 13.4531 5.79141 13.4531 6.91728V7.11211C13.4531 8.23594 12.5036 9.14854 11.3347 9.14854H6.72656V4.88086ZM14.2447 13.6869C14.2447 14.9769 13.1845 16.0228 11.8761 16.0228H6.72656V11.1296H11.8761C13.1845 11.1296 14.2447 12.1755 14.2447 13.4654V13.6869Z" />
</svg>
