<svg viewBox="0 0 42 40"  xmlns="http://www.w3.org/2000/svg">
<path d="M36.3131 3.014C36.99 3.014 37.6391 3.28288 38.1177 3.76149C38.5964 4.24009 38.8652 4.88923 38.8652 5.56608V25.9827C38.8652 26.6596 38.5964 27.3087 38.1177 27.7873C37.6391 28.2659 36.99 28.5348 36.3131 28.5348H29.9329C29.1405 28.5348 28.359 28.7193 27.6503 29.0737C26.9415 29.4281 26.325 29.9426 25.8496 30.5765L21.0007 37.0409L16.1517 30.5765C15.6763 29.9426 15.0598 29.4281 14.351 29.0737C13.6423 28.7193 12.8608 28.5348 12.0684 28.5348H5.68815C5.0113 28.5348 4.36216 28.2659 3.88356 27.7873C3.40495 27.3087 3.13607 26.6596 3.13607 25.9827V5.56608C3.13607 4.88923 3.40495 4.24009 3.88356 3.76149C4.36216 3.28288 5.0113 3.014 5.68815 3.014H36.3131ZM5.68815 0.461914C4.33444 0.461914 3.03618 0.999673 2.07896 1.95689C1.12174 2.91411 0.583984 4.21237 0.583984 5.56608L0.583984 25.9827C0.583984 27.3365 1.12174 28.6347 2.07896 29.5919C3.03618 30.5492 4.33444 31.0869 5.68815 31.0869H12.0684C12.4646 31.0869 12.8553 31.1792 13.2097 31.3563C13.5641 31.5335 13.8723 31.7908 14.11 32.1077L18.959 38.5722C19.1967 38.8891 19.505 39.1464 19.8593 39.3236C20.2137 39.5008 20.6045 39.593 21.0007 39.593C21.3968 39.593 21.7876 39.5008 22.142 39.3236C22.4963 39.1464 22.8046 38.8891 23.0423 38.5722L27.8913 32.1077C28.129 31.7908 28.4372 31.5335 28.7916 31.3563C29.146 31.1792 29.5367 31.0869 29.9329 31.0869H36.3131C37.6669 31.0869 38.9651 30.5492 39.9223 29.5919C40.8796 28.6347 41.4173 27.3365 41.4173 25.9827V5.56608C41.4173 4.21237 40.8796 2.91411 39.9223 1.95689C38.9651 0.999673 37.6669 0.461914 36.3131 0.461914L5.68815 0.461914Z" />
<path d="M8.24023 9.39421C8.24023 9.05578 8.37467 8.73121 8.61398 8.49191C8.85328 8.2526 9.17785 8.11816 9.51628 8.11816H32.485C32.8235 8.11816 33.148 8.2526 33.3873 8.49191C33.6266 8.73121 33.7611 9.05578 33.7611 9.39421C33.7611 9.73263 33.6266 10.0572 33.3873 10.2965C33.148 10.5358 32.8235 10.6702 32.485 10.6702H9.51628C9.17785 10.6702 8.85328 10.5358 8.61398 10.2965C8.37467 10.0572 8.24023 9.73263 8.24023 9.39421ZM8.24023 15.7744C8.24023 15.436 8.37467 15.1114 8.61398 14.8721C8.85328 14.6328 9.17785 14.4984 9.51628 14.4984H32.485C32.8235 14.4984 33.148 14.6328 33.3873 14.8721C33.6266 15.1114 33.7611 15.436 33.7611 15.7744C33.7611 16.1128 33.6266 16.4374 33.3873 16.6767C33.148 16.916 32.8235 17.0505 32.485 17.0505H9.51628C9.17785 17.0505 8.85328 16.916 8.61398 16.6767C8.37467 16.4374 8.24023 16.1128 8.24023 15.7744ZM8.24023 22.1546C8.24023 21.8162 8.37467 21.4916 8.61398 21.2523C8.85328 21.013 9.17785 20.8786 9.51628 20.8786H22.2767C22.6151 20.8786 22.9397 21.013 23.179 21.2523C23.4183 21.4916 23.5527 21.8162 23.5527 22.1546C23.5527 22.4931 23.4183 22.8176 23.179 23.0569C22.9397 23.2962 22.6151 23.4307 22.2767 23.4307H9.51628C9.17785 23.4307 8.85328 23.2962 8.61398 23.0569C8.37467 22.8176 8.24023 22.4931 8.24023 22.1546Z" />
</svg>
