<svg viewBox="0 0 39 38" fill="none" xmlns="http://www.w3.org/2000/svg">
<path d="M19.7337 17.0333C19.7059 16.9979 19.6704 16.9692 19.6299 16.9494C19.5894 16.9297 19.545 16.9194 19.4999 16.9194C19.4548 16.9194 19.4104 16.9297 19.3699 16.9494C19.3294 16.9692 19.2939 16.9979 19.2661 17.0333L15.1099 22.2917C15.0756 22.3355 15.0543 22.388 15.0485 22.4433C15.0427 22.4985 15.0525 22.5543 15.0769 22.6043C15.1013 22.6542 15.1392 22.6963 15.1864 22.7257C15.2336 22.755 15.2881 22.7706 15.3436 22.7704H18.086V31.7658C18.086 31.929 18.2196 32.0626 18.3829 32.0626H20.6095C20.7727 32.0626 20.9063 31.929 20.9063 31.7658V22.7742H23.6561C23.9048 22.7742 24.0421 22.4884 23.8899 22.2954L19.7337 17.0333Z" fill="#B7B7B7"/>
<path d="M30.6105 13.608C28.9109 9.1252 24.5803 5.9375 19.5074 5.9375C14.4346 5.9375 10.1039 9.12148 8.4043 13.6043C5.22402 14.4393 2.875 17.3375 2.875 20.7812C2.875 24.8818 6.19629 28.2031 10.2932 28.2031H11.7812C11.9445 28.2031 12.0781 28.0695 12.0781 27.9062V25.6797C12.0781 25.5164 11.9445 25.3828 11.7812 25.3828H10.2932C9.04258 25.3828 7.86621 24.8855 6.99043 23.9838C6.11836 23.0857 5.65449 21.876 5.69531 20.6217C5.72871 19.642 6.0627 18.7217 6.66758 17.9461C7.2873 17.1557 8.15566 16.5805 9.12051 16.3244L10.527 15.957L11.0428 14.5988C11.3619 13.7527 11.8072 12.9623 12.3676 12.2461C12.9208 11.5362 13.5761 10.9122 14.3121 10.3943C15.8373 9.32188 17.6334 8.7541 19.5074 8.7541C21.3814 8.7541 23.1775 9.32188 24.7027 10.3943C25.4412 10.9139 26.0943 11.5373 26.6473 12.2461C27.2076 12.9623 27.6529 13.7564 27.9721 14.5988L28.4842 15.9533L29.8869 16.3244C31.8982 16.8662 33.3047 18.6957 33.3047 20.7812C33.3047 22.0096 32.826 23.1674 31.9576 24.0357C31.5318 24.4641 31.0252 24.8037 30.4672 25.0349C29.9092 25.2662 29.3108 25.3844 28.7068 25.3828H27.2188C27.0555 25.3828 26.9219 25.5164 26.9219 25.6797V27.9062C26.9219 28.0695 27.0555 28.2031 27.2188 28.2031H28.7068C32.8037 28.2031 36.125 24.8818 36.125 20.7812C36.125 17.3412 33.7834 14.4467 30.6105 13.608Z" fill="#B7B7B7"/>
</svg>
