<svg version="1.1" viewBox="0 0 26 26" xmlns="http://www.w3.org/2000/svg" xmlns:cc="http://creativecommons.org/ns#" xmlns:dc="http://purl.org/dc/elements/1.1/" xmlns:rdf="http://www.w3.org/1999/02/22-rdf-syntax-ns#">
 <g >
  <path d="m12.647 16.088c0 1.2461-0.4951 2.4412-1.3762 3.3223-0.8812 0.8812-2.0762 1.3762-3.3224 1.3762s-2.4412-0.495-3.3224-1.3762c-0.88115-0.8811-1.3762-2.0762-1.3762-3.3223h1.6607c0 0.8056 0.32006 1.5783 0.88977 2.148 0.56971 0.5698 1.3424 0.8898 2.1481 0.8898s1.5784-0.32 2.1481-0.8898c0.5697-0.5697 0.8898-1.3424 0.8898-2.148h1.6607z"/>
  <path d="m7.9104 5.3015 0.03812-0.08823 0.03812 0.08823h-0.07624z"/>
  <path d="m7.0527 7.2868-3.8027 8.8015h9.3971l-3.8027-8.8015h-1.7917zm-1.4534 7.2573 2.3493-5.4376 2.3494 5.4376h-4.6987z" clip-rule="evenodd" fill-rule="evenodd"/>
  <path d="m22.75 16.088c0 1.2461-0.4951 2.4412-1.3762 3.3223-0.8811 0.8812-2.0762 1.3762-3.3224 1.3762-1.2461 0-2.4412-0.495-3.3223-1.3762-0.8812-0.8811-1.3762-2.0762-1.3762-3.3223h1.6607c0 0.8056 0.32 1.5783 0.8897 2.148 0.5698 0.5698 1.3424 0.8898 2.1481 0.8898s1.5784-0.32 2.1481-0.8898c0.5697-0.5697 0.8898-1.3424 0.8898-2.148h1.6607z"/>
  <path d="m18.013 5.3015 0.0381-0.08823 0.0382 0.08823h-0.0763z"/>
  <path d="m17.156 7.2868-3.8027 8.8015h9.3971l-3.8027-8.8015h-1.7917zm-1.4535 7.2573 2.3493-5.4376 2.3494 5.4376h-4.6987z" clip-rule="evenodd" fill-rule="evenodd"/>
  <path d="m25 2.9245v1.0236h-5v-1.0236z"/>
  <rect x="7.6177" y="7.2867" width="10.765" height="1.5882"/>
 </g>
</svg>
