<svg  viewBox="0 0 26 26" xmlns="http://www.w3.org/2000/svg">
<path d="M12.6471 16.0882C12.6471 17.3344 12.152 18.5295 11.2709 19.4106C10.3897 20.2917 9.19466 20.7868 7.94853 20.7868C6.7024 20.7868 5.50731 20.2917 4.62617 19.4106C3.74502 18.5295 3.25 17.3344 3.25 16.0882H4.91067C4.91067 16.8939 5.23073 17.6666 5.80044 18.2363C6.37015 18.806 7.14284 19.1261 7.94853 19.1261C8.75422 19.1261 9.52691 18.806 10.0966 18.2363C10.6663 17.6666 10.9864 16.8939 10.9864 16.0882H12.6471Z" fill="#494949"/>
<path d="M7.91041 5.30148L7.94853 5.21324L7.98665 5.30148H7.91041Z" fill="#494949"/>
<path fill-rule="evenodd" clip-rule="evenodd" d="M7.05266 7.28677L3.25 16.0882L12.6471 16.0882L8.84439 7.28677H7.05266ZM5.59921 14.5441L7.94853 9.10649L10.2979 14.5441H5.59921Z" fill="#494949"/>
<path d="M22.75 16.0882C22.75 17.3344 22.2549 18.5295 21.3738 19.4106C20.4927 20.2917 19.2976 20.7868 18.0514 20.7868C16.8053 20.7868 15.6102 20.2917 14.7291 19.4106C13.8479 18.5295 13.3529 17.3344 13.3529 16.0882H15.0136C15.0136 16.8939 15.3336 17.6666 15.9033 18.2363C16.4731 18.806 17.2457 19.1261 18.0514 19.1261C18.8571 19.1261 19.6298 18.806 20.1995 18.2363C20.7692 17.6666 21.0893 16.8939 21.0893 16.0882H22.75Z" fill="#494949"/>
<path d="M18.0133 5.30148L18.0514 5.21324L18.0896 5.30148H18.0133Z" fill="#494949"/>
<path fill-rule="evenodd" clip-rule="evenodd" d="M17.1556 7.28677L13.3529 16.0882L22.75 16.0882L18.9473 7.28677H17.1556ZM15.7021 14.5441L18.0514 9.10649L20.4008 14.5441H15.7021Z" fill="#494949"/>
<rect x="7.61768" y="7.28677" width="10.7647" height="1.58824" fill="#494949"/>
</svg>