<svg viewBox="0 0 16 17" fill="none" xmlns="http://www.w3.org/2000/svg">
<path d="M8.96967 5.47004C9.11054 5.33593 9.29799 5.26179 9.49249 5.26326C9.68698 5.26473 9.87329 5.3417 10.0121 5.47793C10.1509 5.61416 10.2314 5.79899 10.2366 5.99342C10.2417 6.18785 10.1711 6.37667 10.0397 6.52004L6.04967 11.51C5.98106 11.5839 5.89825 11.6432 5.8062 11.6844C5.71415 11.7256 5.61474 11.7478 5.51392 11.7496C5.4131 11.7515 5.31294 11.733 5.21943 11.6953C5.12591 11.6575 5.04097 11.6013 4.96967 11.53L2.32367 8.88404C2.24998 8.81538 2.19088 8.73258 2.14989 8.64058C2.1089 8.54858 2.08685 8.44927 2.08508 8.34857C2.0833 8.24786 2.10183 8.14783 2.13955 8.05445C2.17727 7.96106 2.23341 7.87622 2.30463 7.805C2.37585 7.73379 2.46068 7.67764 2.55407 7.63992C2.64746 7.6022 2.74749 7.58367 2.84819 7.58545C2.94889 7.58723 3.04821 7.60927 3.14021 7.65026C3.23221 7.69125 3.31501 7.75036 3.38367 7.82404L5.47767 9.91704L8.94967 5.49204C8.9559 5.48432 8.96258 5.47698 8.96967 5.47004ZM8.04967 10.61L8.96967 11.53C9.04095 11.6012 9.12583 11.6573 9.21925 11.6949C9.31267 11.7325 9.41272 11.751 9.51341 11.7491C9.61411 11.7472 9.7134 11.7251 9.80537 11.684C9.89733 11.643 9.98007 11.5838 10.0487 11.51L14.0407 6.52004C14.1124 6.44924 14.1691 6.36472 14.2074 6.27152C14.2457 6.17832 14.2649 6.07835 14.2637 5.97758C14.2625 5.87682 14.241 5.77732 14.2006 5.68504C14.1601 5.59276 14.1014 5.50958 14.0281 5.44047C13.9547 5.37137 13.8682 5.31775 13.7737 5.28282C13.6792 5.24789 13.5786 5.23237 13.4779 5.23718C13.3773 5.242 13.2786 5.26705 13.1878 5.31084C13.0971 5.35462 13.0161 5.41625 12.9497 5.49204L9.47667 9.91704L8.99167 9.43104L8.04867 10.61H8.04967Z" fill="currentColor"/>
</svg>
