<svg viewBox="0 0 17 17" xmlns="http://www.w3.org/2000/svg">
<path fill-rule="evenodd" clip-rule="evenodd" d="M13.0457 0.847806C13.3341 0.728312 13.6433 0.666809 13.9556 0.666809C14.2678 0.666809 14.577 0.728312 14.8655 0.847806C15.154 0.9673 15.4161 1.14245 15.6369 1.36324C15.8577 1.58404 16.0329 1.84616 16.1524 2.13465C16.2719 2.42313 16.3334 2.73233 16.3334 3.04458C16.3334 3.35683 16.2719 3.66603 16.1524 3.95452C16.0329 4.243 15.8577 4.50512 15.6369 4.72592L10.8644 9.49842C10.5013 9.86152 10.0398 10.1082 9.53706 10.2088C9.53702 10.2088 9.5371 10.2088 9.53706 10.2088L7.33039 10.6505C7.05719 10.7051 6.77474 10.6197 6.57769 10.4227C6.38065 10.2257 6.29508 9.9433 6.34966 9.67008L6.79049 7.46341C6.89139 6.9606 7.13896 6.49819 7.50175 6.13574L12.2743 1.36324C12.495 1.14245 12.7572 0.967301 13.0457 0.847806ZM13.9556 2.33348C13.8622 2.33348 13.7697 2.35187 13.6835 2.38761C13.5972 2.42334 13.5188 2.47572 13.4528 2.54175L12.6975 3.29699L13.7034 4.30241L14.4584 3.54741C14.5245 3.48138 14.5768 3.40299 14.6126 3.31671C14.6483 3.23044 14.6667 3.13797 14.6667 3.04458C14.6667 2.9512 14.6483 2.85873 14.6126 2.77245C14.5768 2.68618 14.5245 2.60779 14.4584 2.54175C14.3924 2.47572 14.314 2.42334 14.2277 2.38761C14.1414 2.35187 14.049 2.33348 13.9556 2.33348ZM12.5249 5.48092L11.519 4.4755L8.68027 7.31425C8.55018 7.44416 8.46102 7.61006 8.42479 7.79029C8.42477 7.7904 8.42481 7.79018 8.42479 7.79029L8.22889 8.7709L9.20996 8.57454C9.39048 8.53843 9.55572 8.45011 9.68592 8.31991L12.5249 5.48092Z" fill="#5B5B5B"/>
<path fill-rule="evenodd" clip-rule="evenodd" d="M3 3.99998C2.77899 3.99998 2.56702 4.08778 2.41074 4.24406C2.25446 4.40034 2.16667 4.6123 2.16667 4.83331V14C2.16667 14.221 2.25446 14.433 2.41074 14.5892C2.56702 14.7455 2.77899 14.8333 3 14.8333H12.1667C12.3877 14.8333 12.5996 14.7455 12.7559 14.5892C12.9122 14.433 13 14.221 13 14V11.5C13 11.0397 13.3731 10.6666 13.8333 10.6666C14.2936 10.6666 14.6667 11.0397 14.6667 11.5V14C14.6667 14.663 14.4033 15.2989 13.9344 15.7677C13.4656 16.2366 12.8297 16.5 12.1667 16.5H3C2.33696 16.5 1.70107 16.2366 1.23223 15.7677C0.763392 15.2989 0.5 14.663 0.5 14V4.83331C0.5 4.17027 0.763392 3.53439 1.23223 3.06555C1.70107 2.5967 2.33696 2.33331 3 2.33331H5.5C5.96024 2.33331 6.33333 2.70641 6.33333 3.16665C6.33333 3.62688 5.96024 3.99998 5.5 3.99998H3Z" fill="#5B5B5B"/>
</svg>
