<svg width="24" height="24" viewBox="0 0 24 24" fill="none" xmlns="http://www.w3.org/2000/svg">
<path d="M11.6916 3.68521C11.7848 3.62937 11.8914 3.59988 12 3.59988C12.1087 3.59988 12.2152 3.62937 12.3084 3.68521L20.4348 8.56081C20.7904 8.77415 21.0846 9.07597 21.2888 9.43685C21.493 9.79773 21.6002 10.2054 21.6 10.62V17.4C21.6 18.1957 21.284 18.9587 20.7213 19.5213C20.1587 20.0839 19.3957 20.4 18.6 20.4H5.40002C4.60438 20.4 3.84131 20.0839 3.2787 19.5213C2.7161 18.9587 2.40002 18.1957 2.40002 17.4V10.62C2.39981 10.2054 2.50704 9.79773 2.71124 9.43685C2.91545 9.07597 3.20967 8.77415 3.56522 8.56081L3.82082 8.98681L3.56522 8.56081L11.6916 3.68521ZM12 4.89961L4.18322 9.59041L4.16642 9.60001L12 14.3004L19.8336 9.60001L19.818 9.59041L12 4.89961ZM20.4 10.6596L12.3084 15.5148C12.2152 15.5706 12.1087 15.6001 12 15.6001C11.8914 15.6001 11.7848 15.5706 11.6916 15.5148L3.60002 10.6596V17.4C3.60002 17.8774 3.78967 18.3352 4.12723 18.6728C4.4648 19.0104 4.92263 19.2 5.40002 19.2H18.6C19.0774 19.2 19.5352 19.0104 19.8728 18.6728C20.2104 18.3352 20.4 17.8774 20.4 17.4V10.6596Z" fill="black"/>
</svg>
