<svg  viewBox="0 0 21 21" xmlns="http://www.w3.org/2000/svg">
<path fill-rule="evenodd" clip-rule="evenodd" d="M8.75 3.5H17.5C17.7321 3.5 17.9546 3.59219 18.1187 3.75628C18.2828 3.92038 18.375 4.14294 18.375 4.375C18.375 4.60706 18.2828 4.82962 18.1187 4.99372C17.9546 5.15781 17.7321 5.25 17.5 5.25H8.75C8.51794 5.25 8.29538 5.15781 8.13128 4.99372C7.96719 4.82962 7.875 4.60706 7.875 4.375C7.875 4.14294 7.96719 3.92038 8.13128 3.75628C8.29538 3.59219 8.51794 3.5 8.75 3.5ZM8.75 9.625H17.5C17.7321 9.625 17.9546 9.71719 18.1187 9.88128C18.2828 10.0454 18.375 10.2679 18.375 10.5C18.375 10.7321 18.2828 10.9546 18.1187 11.1187C17.9546 11.2828 17.7321 11.375 17.5 11.375H8.75C8.51794 11.375 8.29538 11.2828 8.13128 11.1187C7.96719 10.9546 7.875 10.7321 7.875 10.5C7.875 10.2679 7.96719 10.0454 8.13128 9.88128C8.29538 9.71719 8.51794 9.625 8.75 9.625ZM8.75 15.75H17.5C17.7321 15.75 17.9546 15.8422 18.1187 16.0063C18.2828 16.1704 18.375 16.3929 18.375 16.625C18.375 16.8571 18.2828 17.0796 18.1187 17.2437C17.9546 17.4078 17.7321 17.5 17.5 17.5H8.75C8.51794 17.5 8.29538 17.4078 8.13128 17.2437C7.96719 17.0796 7.875 16.8571 7.875 16.625C7.875 16.3929 7.96719 16.1704 8.13128 16.0063C8.29538 15.8422 8.51794 15.75 8.75 15.75ZM4.375 6.125C3.91087 6.125 3.46575 5.94063 3.13756 5.61244C2.80937 5.28425 2.625 4.83913 2.625 4.375C2.625 3.91087 2.80937 3.46575 3.13756 3.13756C3.46575 2.80937 3.91087 2.625 4.375 2.625C4.83913 2.625 5.28425 2.80937 5.61244 3.13756C5.94063 3.46575 6.125 3.91087 6.125 4.375C6.125 4.83913 5.94063 5.28425 5.61244 5.61244C5.28425 5.94063 4.83913 6.125 4.375 6.125ZM4.375 12.25C3.91087 12.25 3.46575 12.0656 3.13756 11.7374C2.80937 11.4092 2.625 10.9641 2.625 10.5C2.625 10.0359 2.80937 9.59075 3.13756 9.26256C3.46575 8.93437 3.91087 8.75 4.375 8.75C4.83913 8.75 5.28425 8.93437 5.61244 9.26256C5.94063 9.59075 6.125 10.0359 6.125 10.5C6.125 10.9641 5.94063 11.4092 5.61244 11.7374C5.28425 12.0656 4.83913 12.25 4.375 12.25ZM4.375 18.375C3.91087 18.375 3.46575 18.1906 3.13756 17.8624C2.80937 17.5342 2.625 17.0891 2.625 16.625C2.625 16.1609 2.80937 15.7158 3.13756 15.3876C3.46575 15.0594 3.91087 14.875 4.375 14.875C4.83913 14.875 5.28425 15.0594 5.61244 15.3876C5.94063 15.7158 6.125 16.1609 6.125 16.625C6.125 17.0891 5.94063 17.5342 5.61244 17.8624C5.28425 18.1906 4.83913 18.375 4.375 18.375Z" />
</svg>
