<svg viewBox="0 0 15 15" fill="none" xmlns="http://www.w3.org/2000/svg">
<path fill-rule="evenodd" clip-rule="evenodd" d="M1.09272 0.352685C0.940069 0.390541 0.669166 0.549474 0.583176 0.651607C0.54007 0.702801 0.466377 0.817478 0.419404 0.906496L0.333984 1.06828V2.35128V3.63428L0.442289 3.83389C0.562574 4.05561 0.661274 4.15109 0.901116 4.27752L1.06299 4.36289H2.34666H3.63034L3.79221 4.27752C4.03205 4.15109 4.13075 4.05561 4.25103 3.83389L4.35934 3.63428V2.35128V1.06828L4.27392 0.906496C4.14742 0.666782 4.05189 0.568133 3.83005 0.447912L3.63034 0.339665L2.41005 0.334121C1.7389 0.33108 1.14609 0.339443 1.09272 0.352685ZM3.36092 2.35128V3.36501H2.34666H1.3324V2.35128V1.33755H2.34666H3.36092V2.35128ZM6.08691 1.39039C5.24121 1.68612 5.14501 2.80476 5.92827 3.23579L6.1343 3.34917H9.95363H13.773L13.9727 3.24092C14.1952 3.12032 14.2913 3.02081 14.4153 2.78233C14.4866 2.6452 14.4996 2.57949 14.5006 2.35128C14.5017 2.10089 14.4938 2.06756 14.3884 1.87609C14.3145 1.74171 14.2224 1.63017 14.1234 1.55503C13.8192 1.32409 14.0765 1.33739 9.94206 1.33907C6.64989 1.3404 6.21325 1.34623 6.08691 1.39039ZM1.09272 5.42132C0.940069 5.45918 0.669166 5.61811 0.583176 5.72024C0.54007 5.77144 0.466377 5.88611 0.419404 5.97513L0.333984 6.13692V7.41991V8.70291L0.442289 8.90252C0.562574 9.12424 0.661274 9.21972 0.901116 9.34615L1.06299 9.43153H2.34666H3.63034L3.79221 9.34615C4.03205 9.21972 4.13075 9.12424 4.25103 8.90252L4.35934 8.70291V7.41991V6.13692L4.27392 5.97513C4.14742 5.73542 4.05189 5.63677 3.83005 5.51655L3.63034 5.4083L2.41005 5.40276C1.7389 5.39971 1.14609 5.40808 1.09272 5.42132ZM3.36092 7.41991V8.43364H2.34666H1.3324V7.41991V6.40619H2.34666H3.36092V7.41991ZM6.08691 6.45903C5.24121 6.75475 5.14501 7.8734 5.92827 8.30442L6.1343 8.4178H9.95363H13.773L13.9727 8.30955C14.1952 8.18895 14.2913 8.08945 14.4153 7.85097C14.4866 7.71383 14.4996 7.64813 14.5006 7.41991C14.5017 7.16952 14.4938 7.1362 14.3884 6.94473C14.3145 6.81035 14.2224 6.6988 14.1234 6.62366C13.8192 6.39272 14.0765 6.40603 9.94206 6.40771C6.64989 6.40904 6.21325 6.41487 6.08691 6.45903ZM1.09272 10.49C0.940069 10.5278 0.669166 10.6867 0.583176 10.7889C0.54007 10.8401 0.466377 10.9547 0.419404 11.0438L0.333984 11.2056V12.4885V13.7715L0.442289 13.9712C0.562574 14.1929 0.661274 14.2884 0.901116 14.4148L1.06299 14.5002H2.34666H3.63034L3.79221 14.4148C4.03205 14.2884 4.13075 14.1929 4.25103 13.9712L4.35934 13.7715V12.4885V11.2056L4.27392 11.0438C4.14742 10.8041 4.05189 10.7054 3.83005 10.5852L3.63034 10.4769L2.41005 10.4714C1.7389 10.4683 1.14609 10.4767 1.09272 10.49ZM3.36092 12.4885V13.5023H2.34666H1.3324V12.4885V11.4748H2.34666H3.36092V12.4885ZM6.08691 11.5277C5.24121 11.8234 5.14501 12.942 5.92827 13.3731L6.1343 13.4864H9.95363H13.773L13.9727 13.3782C14.1952 13.2576 14.2913 13.1581 14.4153 12.9196C14.4866 12.7825 14.4996 12.7168 14.5006 12.4885C14.5017 12.2382 14.4938 12.2048 14.3884 12.0134C14.3145 11.879 14.2224 11.7674 14.1234 11.6923C13.8192 11.4614 14.0765 11.4747 9.94206 11.4763C6.64989 11.4777 6.21325 11.4835 6.08691 11.5277Z" fill="#5B5B5B"/>
</svg>