<svg viewBox="0 0 12 12" fill="none" xmlns="http://www.w3.org/2000/svg">
<path d="M6.66667 12H1.33333C0.979711 12 0.640573 11.8595 0.390524 11.6095C0.140476 11.3594 0 11.0203 0 10.6667V1.33333C0 0.979711 0.140476 0.640573 0.390524 0.390524C0.640573 0.140476 0.979711 0 1.33333 0H10.6667C11.0203 0 11.3594 0.140476 11.6095 0.390524C11.8595 0.640573 12 0.979711 12 1.33333V6.66667C11.9997 6.67437 11.9984 6.682 11.996 6.68933C11.9941 6.69541 11.9927 6.70166 11.992 6.708C11.9882 6.76679 11.9768 6.82483 11.958 6.88067L11.952 6.89867C11.9199 6.98835 11.8687 7.07001 11.802 7.138L7.13533 11.8047C7.01099 11.929 6.84254 11.9993 6.66667 12ZM1.33333 1.33333V10.6667H6V6.66667C6 6.48986 6.07024 6.32029 6.19526 6.19526C6.32029 6.07024 6.48986 6 6.66667 6H10.6667V1.33333H1.33333ZM7.33333 7.33333V9.72467L9.724 7.33333H7.33333Z" fill="currentColor"/>
</svg>
