<svg viewBox="0 0 36 36" fill="none" xmlns="http://www.w3.org/2000/svg">
<path d="M33.4334 24.4306C31.0417 24.4306 28.7278 24.0417 26.5695 23.3417C26.2314 23.2271 25.8678 23.2101 25.5205 23.2926C25.1731 23.3752 24.856 23.5539 24.6056 23.8084L21.5528 27.639C16.0501 25.014 10.8973 20.0556 8.15562 14.3584L11.9473 11.1306C12.4723 10.5862 12.6278 9.82784 12.414 9.14729C11.6945 6.98895 11.3251 4.67507 11.3251 2.2834C11.3251 1.2334 10.4501 0.358398 9.40007 0.358398H2.67229C1.62229 0.358398 0.358398 0.825065 0.358398 2.2834C0.358398 20.3473 15.389 35.3584 33.4334 35.3584C34.814 35.3584 35.3584 34.1334 35.3584 33.064V26.3556C35.3584 25.3056 34.4834 24.4306 33.4334 24.4306Z" fill="white"/>
</svg>
