<svg viewBox="0 0 18 6" fill="none" xmlns="http://www.w3.org/2000/svg">
<path d="M16.4993 2.16648H15.5127C15.343 1.67936 15.0259 1.25712 14.6054 0.958335C14.1849 0.659549 13.6819 0.499023 13.166 0.499023C12.6502 0.499023 12.1471 0.659549 11.7266 0.958335C11.3061 1.25712 10.9891 1.67936 10.8193 2.16648H7.17935C7.00964 1.67936 6.69255 1.25712 6.27206 0.958335C5.85157 0.659549 5.34852 0.499023 4.83268 0.499023C4.31685 0.499023 3.8138 0.659549 3.3933 0.958335C2.97281 1.25712 2.65572 1.67936 2.48602 2.16648H1.49935C1.27834 2.16648 1.06637 2.25428 0.910093 2.41056C0.753813 2.56684 0.666016 2.7788 0.666016 2.99981C0.666016 3.22082 0.753813 3.43279 0.910093 3.58907C1.06637 3.74535 1.27834 3.83314 1.49935 3.83314H2.48602C2.65572 4.32026 2.97281 4.7425 3.3933 5.04129C3.8138 5.34007 4.31685 5.5006 4.83268 5.5006C5.34852 5.5006 5.85157 5.34007 6.27206 5.04129C6.69255 4.7425 7.00964 4.32026 7.17935 3.83314H10.8193C10.9891 4.32026 11.3061 4.7425 11.7266 5.04129C12.1471 5.34007 12.6502 5.5006 13.166 5.5006C13.6819 5.5006 14.1849 5.34007 14.6054 5.04129C15.0259 4.7425 15.343 4.32026 15.5127 3.83314H16.4993C16.7204 3.83314 16.9323 3.74535 17.0886 3.58907C17.2449 3.43279 17.3327 3.22082 17.3327 2.99981C17.3327 2.7788 17.2449 2.56684 17.0886 2.41056C16.9323 2.25428 16.7204 2.16648 16.4993 2.16648ZM4.83268 3.83314C4.66786 3.83314 4.50675 3.78427 4.36971 3.6927C4.23267 3.60113 4.12586 3.47099 4.06278 3.31871C3.99971 3.16644 3.98321 2.99889 4.01536 2.83724C4.04752 2.67558 4.12688 2.5271 4.24343 2.41056C4.35997 2.29401 4.50846 2.21464 4.67011 2.18249C4.83176 2.15034 4.99931 2.16684 5.15159 2.22991C5.30386 2.29298 5.43401 2.39979 5.52557 2.53684C5.61714 2.67388 5.66602 2.83499 5.66602 2.99981C5.66579 3.22076 5.57793 3.43259 5.42169 3.58882C5.26546 3.74506 5.05363 3.83292 4.83268 3.83314ZM13.166 3.83314C13.0012 3.83314 12.8401 3.78427 12.703 3.6927C12.566 3.60113 12.4592 3.47099 12.3961 3.31871C12.333 3.16644 12.3165 2.99889 12.3487 2.83724C12.3808 2.67558 12.4602 2.5271 12.5768 2.41056C12.6933 2.29401 12.8418 2.21464 13.0034 2.18249C13.1651 2.15034 13.3326 2.16684 13.4849 2.22991C13.6372 2.29298 13.7673 2.39979 13.8589 2.53684C13.9505 2.67388 13.9993 2.83499 13.9993 2.99981C13.9991 3.22076 13.9113 3.43259 13.755 3.58882C13.5988 3.74506 13.387 3.83292 13.166 3.83314Z" fill="#5B5B5B"/>
</svg>