<svg width="18" height="18" viewBox="0 0 18 18" fill="none" xmlns="http://www.w3.org/2000/svg">
<g clip-path="url(#clip0_212_428)">
<path d="M11.2296 2.93101C9.76272 2.6091 8.23725 2.6091 6.77039 2.93101C5.92319 2.44028 5.27639 2.21474 4.80598 2.11954C4.60522 2.07675 4.39978 2.05659 4.19398 2.05948C4.10034 2.06187 4.00714 2.0725 3.91558 2.09121L3.90358 2.09348L3.89878 2.09574H3.89518L4.05958 2.64088L3.89518 2.09688C3.81088 2.11938 3.73282 2.15904 3.66648 2.21308C3.60014 2.26712 3.54713 2.33422 3.51118 2.40968C3.15715 3.15848 3.0897 4.00022 3.32038 4.79081C2.72295 5.47461 2.39737 6.33413 2.39998 7.22068C2.39998 8.98074 2.94958 10.1639 3.88678 10.9244C4.54318 11.4571 5.33999 11.7404 6.13918 11.9025C6.01342 12.2513 5.96601 12.6211 5.99998 12.9882V13.6659C5.51158 13.7623 5.17319 13.7317 4.93199 13.6569C4.63078 13.5628 4.39918 13.3735 4.17718 13.1015C4.06113 12.9549 3.953 12.8029 3.85318 12.6459L3.78478 12.5405C3.69842 12.4049 3.60879 12.2711 3.51598 12.1393C3.28798 11.8209 2.94958 11.4219 2.40238 11.2859L1.82158 11.142L1.51678 12.2391L2.09758 12.383C2.19358 12.4057 2.31838 12.4907 2.52358 12.7751C2.60257 12.8874 2.67859 13.0016 2.75158 13.1174L2.83318 13.2421C2.94598 13.4143 3.07558 13.6047 3.22558 13.7906C3.52918 14.1646 3.94318 14.542 4.55758 14.7335C4.97758 14.865 5.45518 14.8967 5.99998 14.8174V16.9333C5.99998 17.0836 6.0632 17.2278 6.17572 17.334C6.28824 17.4403 6.44086 17.5 6.59999 17.5H11.4C11.5591 17.5 11.7117 17.4403 11.8242 17.334C11.9368 17.2278 12 17.0836 12 16.9333V12.8953C12 12.5383 11.9832 12.2107 11.8764 11.9059C12.672 11.7472 13.4628 11.4639 14.1156 10.9312C15.0516 10.1651 15.6 8.97054 15.6 7.20028V7.19914C15.597 6.31986 15.2713 5.46875 14.6784 4.79081C14.9088 4.00057 14.8413 3.15928 14.4876 2.41081C14.4519 2.33527 14.3991 2.26802 14.333 2.21378C14.2669 2.15955 14.189 2.11965 14.1048 2.09688L13.9404 2.64088C14.1048 2.09688 14.1036 2.09688 14.1024 2.09688L14.1 2.09574L14.0952 2.09348L14.0844 2.09121C14.0548 2.08393 14.0247 2.07826 13.9944 2.07421C13.9316 2.06555 13.8682 2.06063 13.8048 2.05948C13.599 2.05661 13.3936 2.07677 13.1928 2.11954C12.7236 2.21474 12.0768 2.44028 11.2296 2.93101Z" fill="black"/>
</g>
<defs>
<clipPath id="clip0_212_428">
<rect width="18" height="17" fill="white" transform="translate(0 0.5)"/>
</clipPath>
</defs>
</svg>
