<svg viewBox="0 0 24 24" fill="none" xmlns="http://www.w3.org/2000/svg">
<path d="M20.2504 16.6044V7.39441C20.7642 7.26421 21.2344 7.00018 21.613 6.62921C21.9916 6.25824 22.2652 5.79357 22.4059 5.2825C22.5466 4.77144 22.5493 4.23222 22.4139 3.71974C22.2784 3.20727 22.0096 2.73983 21.6348 2.36501C21.26 1.99019 20.7925 1.72137 20.2801 1.58592C19.7676 1.45047 19.2284 1.45323 18.7173 1.59391C18.2062 1.73458 17.7416 2.00816 17.3706 2.38679C16.9996 2.76542 16.7356 3.23558 16.6054 3.74941H7.39539C7.26518 3.23558 7.00116 2.76542 6.63018 2.38679C6.25921 2.00816 5.79455 1.73458 5.28348 1.59391C4.77241 1.45323 4.2332 1.45047 3.72072 1.58592C3.20824 1.72137 2.7408 1.99019 2.36598 2.36501C1.99116 2.73983 1.72235 3.20727 1.5869 3.71974C1.45145 4.23222 1.45421 4.77144 1.59488 5.2825C1.73556 5.79357 2.00914 6.25824 2.38777 6.62921C2.76639 7.00018 3.23656 7.26421 3.75039 7.39441V16.6044C3.23656 16.7346 2.76639 16.9986 2.38777 17.3696C2.00914 17.7406 1.73556 18.2053 1.59488 18.7163C1.45421 19.2274 1.45145 19.7666 1.5869 20.2791C1.72235 20.7916 1.99116 21.259 2.36598 21.6338C2.7408 22.0086 3.20824 22.2775 3.72072 22.4129C4.2332 22.5484 4.77241 22.5456 5.28348 22.4049C5.79455 22.2642 6.25921 21.9907 6.63018 21.612C7.00116 21.2334 7.26518 20.7632 7.39539 20.2494H16.6054C16.7356 20.7632 16.9996 21.2334 17.3706 21.612C17.7416 21.9907 18.2062 22.2642 18.7173 22.4049C19.2284 22.5456 19.7676 22.5484 20.2801 22.4129C20.7925 22.2775 21.26 22.0086 21.6348 21.6338C22.0096 21.259 22.2784 20.7916 22.4139 20.2791C22.5493 19.7666 22.5466 19.2274 22.4059 18.7163C22.2652 18.2053 21.9916 17.7406 21.613 17.3696C21.2344 16.9986 20.7642 16.7346 20.2504 16.6044ZM19.5004 2.99941C19.7971 2.99941 20.0871 3.08739 20.3337 3.25221C20.5804 3.41703 20.7727 3.6513 20.8862 3.92539C20.9997 4.19948 21.0294 4.50108 20.9716 4.79205C20.9137 5.08302 20.7708 5.35029 20.561 5.56007C20.3513 5.76985 20.084 5.91271 19.793 5.97059C19.5021 6.02847 19.2005 5.99876 18.9264 5.88523C18.6523 5.7717 18.418 5.57944 18.2532 5.33277C18.0884 5.08609 18.0004 4.79608 18.0004 4.49941C18.0004 4.10159 18.1584 3.72006 18.4397 3.43875C18.721 3.15745 19.1026 2.99941 19.5004 2.99941V2.99941ZM3.00039 4.49941C3.00039 4.20274 3.08836 3.91273 3.25318 3.66606C3.41801 3.41938 3.65227 3.22712 3.92636 3.11359C4.20045 3.00006 4.50205 2.97036 4.79302 3.02823C5.084 3.08611 5.35127 3.22897 5.56105 3.43875C5.77083 3.64853 5.91369 3.91581 5.97157 4.20678C6.02945 4.49775 5.99974 4.79935 5.88621 5.07344C5.77268 5.34753 5.58042 5.58179 5.33374 5.74662C5.08707 5.91144 4.79706 5.99941 4.50039 5.99941C4.10256 5.99941 3.72103 5.84138 3.43973 5.56007C3.15842 5.27877 3.00039 4.89724 3.00039 4.49941V4.49941ZM4.50039 20.9994C4.20372 20.9994 3.91371 20.9114 3.66703 20.7466C3.42036 20.5818 3.2281 20.3475 3.11457 20.0734C3.00104 19.7993 2.97133 19.4977 3.02921 19.2068C3.08709 18.9158 3.22995 18.6485 3.43973 18.4388C3.64951 18.229 3.91678 18.0861 4.20775 18.0282C4.49873 17.9704 4.80033 18.0001 5.07441 18.1136C5.3485 18.2271 5.58277 18.4194 5.74759 18.6661C5.91242 18.9127 6.00039 19.2027 6.00039 19.4994C6.00039 19.8972 5.84235 20.2788 5.56105 20.5601C5.27974 20.8414 4.89821 20.9994 4.50039 20.9994ZM16.6054 18.7494H7.39539C7.26072 18.2335 6.99099 17.7628 6.61398 17.3858C6.23696 17.0088 5.76628 16.7391 5.25039 16.6044V7.39441C5.76628 7.25974 6.23696 6.99002 6.61398 6.613C6.99099 6.23599 7.26072 5.76531 7.39539 5.24941H16.6054C16.7401 5.76531 17.0098 6.23599 17.3868 6.613C17.7638 6.99002 18.2345 7.25974 18.7504 7.39441V16.6044C18.2345 16.7391 17.7638 17.0088 17.3868 17.3858C17.0098 17.7628 16.7401 18.2335 16.6054 18.7494V18.7494ZM19.5004 20.9994C19.2037 20.9994 18.9137 20.9114 18.667 20.7466C18.4204 20.5818 18.2281 20.3475 18.1146 20.0734C18.001 19.7993 17.9713 19.4977 18.0292 19.2068C18.0871 18.9158 18.23 18.6485 18.4397 18.4388C18.6495 18.229 18.9168 18.0861 19.2078 18.0282C19.4987 17.9704 19.8003 18.0001 20.0744 18.1136C20.3485 18.2271 20.5828 18.4194 20.7476 18.6661C20.9124 18.9127 21.0004 19.2027 21.0004 19.4994C21.0004 19.8972 20.8424 20.2788 20.561 20.5601C20.2797 20.8414 19.8982 20.9994 19.5004 20.9994Z" fill="currentColor"/>
<path d="M15.75 8.25H8.25V9.75H11.25V16.5H12.75V9.75H15.75V8.25Z" fill="currentColor" />
</svg>
