<svg  viewBox="0 0 24 24" fill="none" xmlns="http://www.w3.org/2000/svg">
<path d="M15.38 8.49992L8.62 8.49992L12 5.11992L15.38 8.49992ZM12.71 3.70992C12.6175 3.61722 12.5076 3.54367 12.3866 3.49349C12.2656 3.44331 12.136 3.41748 12.005 3.41748C11.874 3.41748 11.7443 3.44331 11.6234 3.49349C11.5024 3.54367 11.3925 3.61722 11.3 3.70992L6.71 8.29992C6.08 8.91992 6.52 9.99992 7.41 9.99992L16.59 9.99992C17.48 9.99992 17.93 8.91992 17.3 8.28992L12.71 3.70992ZM16.59 13.9999L7.42 13.9999C6.53 13.9999 6.08 15.0799 6.71 15.7099L11.3 20.2999C11.3925 20.3926 11.5024 20.4662 11.6234 20.5164C11.7443 20.5665 11.874 20.5924 12.005 20.5924C12.136 20.5924 12.2656 20.5665 12.3866 20.5164C12.5076 20.4662 12.6175 20.3926 12.71 20.2999L17.3 15.7099C17.92 15.0799 17.48 13.9999 16.59 13.9999Z" fill="#1E453E"/>
</svg>
