<svg viewBox="0 0 6 18" fill="none" xmlns="http://www.w3.org/2000/svg">
<path d="M0.714372 15.4812V15.0115C0.724734 14.9735 0.742004 14.939 0.748912 14.901C0.900886 13.9132 1.72293 13.1326 2.68656 13.067C3.76419 12.991 4.67603 13.6058 4.97307 14.6074C5.01107 14.7386 5.0387 14.8768 5.07324 15.0115V15.4812C5.06287 15.5123 5.04561 15.5399 5.04215 15.5745C4.89363 16.4863 4.23738 17.1806 3.33936 17.3774C3.27028 17.3913 3.2012 17.412 3.13212 17.4292H2.66238C2.6313 17.4189 2.60021 17.4016 2.56913 17.3982C1.6711 17.2531 0.987234 16.6141 0.77998 15.7265C0.759257 15.6401 0.735079 15.5607 0.714355 15.4812H0.714372ZM5.07325 2.20432L5.07324 2.67409C5.06287 2.71208 5.04561 2.74662 5.04215 2.78462C4.88672 3.77935 4.06123 4.55649 3.08722 4.61866C2.01304 4.68774 1.10465 4.06603 0.811066 3.06093C0.773072 2.93312 0.745441 2.80189 0.714355 2.67407V2.20434C0.724717 2.17325 0.741987 2.14562 0.748895 2.11453C0.914684 1.21651 1.43623 0.629338 2.30663 0.349568C2.42061 0.311575 2.54149 0.290851 2.65893 0.259766H3.12866C3.15975 0.270127 3.19084 0.287397 3.22192 0.290851C4.1234 0.439371 4.80383 1.0749 5.01107 1.96256C5.03181 2.04545 5.05253 2.12489 5.07325 2.20432ZM5.07324 8.60795V9.07768C5.06287 9.11568 5.04561 9.15022 5.0387 9.18821C4.88327 10.1795 4.02669 10.9774 3.05959 11.0188C1.97159 11.0672 1.04939 10.4109 0.790342 9.3989C0.762711 9.29183 0.738533 9.18475 0.714355 9.07768V8.60795C0.724717 8.56995 0.741987 8.53541 0.748895 8.49742C0.900869 7.50614 1.7609 6.70826 2.72801 6.66338C3.816 6.61157 4.7382 7.27127 4.99725 8.28328C5.02488 8.3938 5.04906 8.50087 5.07324 8.60795Z" fill="#494949"/>
</svg>
