<svg viewBox="0 0 19 10" fill="none" xmlns="http://www.w3.org/2000/svg">
<path fill-rule="evenodd" clip-rule="evenodd" d="M4.16438 0.872322C2.43126 1.13134 1.05782 2.47514 0.712693 4.24943C0.650457 4.56951 0.650457 5.43569 0.712693 5.75576C0.982531 7.1431 1.89487 8.29997 3.14394 8.83871C4.67083 9.49726 6.42345 9.1465 7.59295 7.94826C8.14407 7.38366 8.49337 6.7462 8.68888 5.94844C8.76622 5.63291 8.77931 5.5034 8.78088 5.03763C8.78345 4.29087 8.68806 3.84335 8.38541 3.18259L8.24977 2.88647L8.62387 2.49948C8.82962 2.28667 9.01633 2.07564 9.03877 2.03056C9.10248 1.90273 9.08864 1.65467 9.01061 1.52586C8.9146 1.36728 8.76968 1.2893 8.57102 1.2893C8.36523 1.2893 8.31783 1.32072 7.91858 1.72197L7.60244 2.03966L7.51968 1.971C7.47416 1.93324 7.34668 1.82717 7.23642 1.73528C6.41091 1.04748 5.22377 0.713981 4.16438 0.872322ZM13.5495 0.87001C11.7922 1.15292 10.4432 2.4737 10.0978 4.24943C10.0702 4.39102 10.0501 4.70928 10.0501 5.0026C10.0501 5.29591 10.0702 5.61417 10.0978 5.75576C10.2955 6.77247 10.8517 7.6939 11.6386 8.30862C13.2624 9.57706 15.5382 9.42349 16.978 7.94826C17.5291 7.38366 17.8785 6.7462 18.074 5.94844C18.1513 5.63291 18.1644 5.5034 18.166 5.03763C18.1671 4.70651 18.1492 4.39897 18.1202 4.24943C17.7932 2.56856 16.5584 1.28229 14.9216 0.917547C14.628 0.852109 13.8319 0.82454 13.5495 0.87001ZM5.49271 1.98796C5.83996 2.08069 6.25523 2.28663 6.53925 2.50698C6.92216 2.80401 7.00816 2.6484 5.74933 3.93632L4.63898 5.07234L4.2447 4.67344C4.02789 4.45404 3.81679 4.25706 3.77565 4.23573C3.73448 4.21436 3.63741 4.19688 3.55987 4.19688C3.22341 4.19688 2.99998 4.4772 3.06215 4.82141C3.08147 4.9284 3.19011 5.05812 3.7077 5.59206C4.04995 5.94518 4.37161 6.25653 4.42247 6.28393C4.53187 6.34289 4.71553 6.34842 4.85011 6.29679C4.90313 6.27643 5.51727 5.67723 6.21488 4.96518L7.48321 3.67057L7.5762 3.91502C7.99945 5.02768 7.69708 6.39154 6.84081 7.23187C5.1518 8.88947 2.39111 8.09717 1.76995 5.77654C1.66829 5.39666 1.66829 4.60853 1.76995 4.22865C2.08617 3.04723 3.01354 2.16192 4.17017 1.9373C4.52365 1.86864 5.13348 1.89201 5.49271 1.98796ZM14.6382 1.93807C15.8783 2.15923 16.8891 3.19306 17.1053 4.4613C17.3173 5.70402 16.7917 6.92283 15.7415 7.62397C14.3657 8.54256 12.5056 8.13746 11.5765 6.71691C10.8929 5.67159 10.8929 4.33361 11.5765 3.28828C12.257 2.24792 13.443 1.72487 14.6382 1.93807ZM12.5937 3.25321C12.449 3.33137 12.3279 3.53801 12.3279 3.70679C12.3279 3.89074 12.4211 4.02242 12.9045 4.52092L13.3716 5.0026L12.9045 5.48427C12.6476 5.74921 12.4128 6.0164 12.3827 6.07805C12.1736 6.50575 12.6392 6.98196 13.0574 6.76816C13.1177 6.73734 13.379 6.49716 13.638 6.23443L14.109 5.75671L14.5799 6.23443C15.0673 6.72882 15.1961 6.82421 15.376 6.82421C15.7391 6.82421 15.996 6.40685 15.8353 6.07805C15.8051 6.0164 15.5703 5.74921 15.3134 5.48427L14.8463 5.0026L15.3134 4.52092C15.5703 4.25601 15.8051 3.9888 15.8353 3.92714C16.0443 3.49945 15.5787 3.02323 15.1605 3.23703C15.1002 3.26785 14.839 3.50803 14.5799 3.77076L14.109 4.24848L13.638 3.77076C13.379 3.50803 13.1177 3.26785 13.0574 3.23703C12.9123 3.16283 12.7506 3.16851 12.5937 3.25321Z" fill="#282828"/>
</svg>